<svg xmlns="http://www.w3.org/2000/svg" viewBox="0 0 200 200"><defs><style>.cls-1{fill:#cf5116;}.cls-2{fill:#fff;}</style></defs><g id="Capa_2" data-name="Capa 2"><g id="Diseño_Home" data-name="Diseño Home"><circle class="cls-1" cx="100" cy="100" r="100"/><path class="cls-2" d="M38.46,130.35c.12-.35.25-.7.36-1.06a8.13,8.13,0,0,1,13.27-3.62c.78.72,1.45,1.57,2.35,2.53l6.16-11.34a31.33,31.33,0,0,1-4.76,0,14.64,14.64,0,0,1-11.59-9.19,23.88,23.88,0,0,1-1.4-6.31,2.43,2.43,0,0,1,1.7-2.8c1.14-.32,2.11.15,2.93,1.47a7.84,7.84,0,0,0,2.71,3.17c2.16,1.16,3.8.92,5.2-1.07.83-1.18,1.4-2.54,2.13-3.79a44.51,44.51,0,0,1,2.9-4.79,9.66,9.66,0,0,1,13.93-1.84c.25.18.49.37.77.59a10.24,10.24,0,0,1,6-1.41c6.59,0,13.17,0,19.76,0,1.1,0,1.59-.33,1.77-1.36a15.94,15.94,0,0,1,.54-1.85c-.42-.19-.82-.37-1.23-.54a6.25,6.25,0,0,1-3.66-7.63q3-9.82,6-19.59a6,6,0,0,1,6.11-4.46A4.89,4.89,0,0,0,115,53.4c3.19-4,7.63-5.31,12.62-4.89A3.9,3.9,0,0,1,131,52.39c0,2.06,0,4.13,0,6.19a2.2,2.2,0,0,0,1.4,2.25c4.8,2.36,9.6,4.72,14.37,7.13a8.4,8.4,0,0,1,4.89,7.49,8.79,8.79,0,0,1-9,9.22c-4.51,0-9,0-13.55,0-2,0-2.45.5-2.46,2.42,0,1.69,0,3.37,0,5.05,0,1.33-.68,2.11-1.74,2.1s-1.69-.78-1.7-2c0-1.94,0-3.89,0-5.84a5.06,5.06,0,0,1,5.1-5.11c4.75,0,9.5,0,14.24,0a5.4,5.4,0,0,0,5.67-5.71A5.34,5.34,0,0,0,145,70.89c-4.59-2.26-9.15-4.6-13.77-6.8a5.71,5.71,0,0,1-3.65-5.89c.08-1.75,0-3.52,0-5.27,0-.72-.23-1-1-1a10.81,10.81,0,0,0-11.26,7.78c-3.34,10.83-6.6,21.68-9.87,32.53a4.72,4.72,0,0,0-.17,1.35c0,2.67,0,5.35,0,8a5.13,5.13,0,0,1-5.24,5.35q-7.19.07-14.36,0a5.13,5.13,0,0,1-5.2-5.28c0-2.4,0-4.8,0-7.18a4.91,4.91,0,0,0-5.33,2.83q-3.37,6.18-6.73,12.38L61,123.35c-.2.36-.37.74-.58,1.17l10.38,7.42c.68-1.26,1.32-2.47,2-3.68q2.69-5,5.38-10c1.28-2.35,3.16-2.71,5.12-.93a11.71,11.71,0,0,0,7.35,3.09c1.48.09,2.17.72,2.08,1.85s-.91,1.66-2.35,1.57a14.9,14.9,0,0,1-8.55-3.25l-.46-.34a1.17,1.17,0,0,0-.31-.08l-10.23,19a62.08,62.08,0,0,0,51.79.45l-5.23-9.75c-1.74-3.22-3.47-6.45-5.24-9.75a4,4,0,0,0-.59.32c-3.65,3.07-8,3.66-12.52,3.39a1.71,1.71,0,1,1,.13-3.41c1.42-.06,2.84,0,4.24-.13a10.92,10.92,0,0,0,6.46-2.94c2-1.82,3.9-1.48,5.19.93l7.4,13.73,10.66-6.7c-.3-.56-.56-1.06-.83-1.55-2.48-4.57-4.89-9.17-7.47-13.67-1.8-3.12-1.63-6.46-1.51-9.81A1.51,1.51,0,0,1,125,98.89a1.57,1.57,0,0,1,1.61,1.62c.06,1.21-.1,2.46.06,3.66a11.27,11.27,0,0,0,.93,3.84c3.65,6.88,7.41,13.7,11.14,20.53.06.1.13.19.28.39.84-.81,1.72-1.54,2.47-2.39a8.2,8.2,0,0,1,14.41,3.64c0,.06.09.11.14.17v2.75a11.87,11.87,0,0,1-2.88,4.84c-18.52,18.17-40.7,25.84-66.45,22.67-17-2.1-31.64-9.47-44-21.3-1.86-1.78-3.6-3.61-4.26-6.21Zm55.82,27.58c17.19,0,30.37-3.76,42.49-11.22a73.68,73.68,0,0,0,14.34-11.58,4.68,4.68,0,0,0-.27-7.15c-2-1.62-4.56-1.32-6.67.82-11.4,11.49-25.13,18.12-41.31,19.48a64.9,64.9,0,0,1-52.52-19.53A4.86,4.86,0,0,0,46.06,127a4.48,4.48,0,0,0-3.89,3.13,4.65,4.65,0,0,0,1.37,5.11C58.33,150.15,76.26,157.62,94.28,157.93ZM72.62,94.75c-3.11-2.63-7-2.33-9.4.75a34.42,34.42,0,0,0-2.44,4c-.81,1.42-1.45,3-2.37,4.3-2.59,3.83-6.47,4.56-10.37,2.08-.29-.19-.6-.37-.89-.55a11.7,11.7,0,0,0,7.78,7.82c4.25,1.36,7.76-.11,9.86-4Zm11.32-.39V100c0,3.4.14,3.53,3.55,3.53H99.66c1.33,0,2.13-.51,2.16-1.55.07-2.5,0-5,0-7.57Zm28-35.38c-2.74-.32-3.82.33-4.52,2.6q-2.83,9.24-5.67,18.49c-.67,2.18.23,3.66,2.53,4.14C106.82,75.84,109.36,67.46,111.94,59Zm13.92,79.46,10.59-7-1.7-3.1-10.68,6.73Zm-68.8-7.8,10.55,7.22L69.14,135l-10.41-7.45Z"/><path class="cls-2" d="M123.24,69.12a8.93,8.93,0,0,1,0-1.37,1.6,1.6,0,0,1,1.7-1.52,1.57,1.57,0,0,1,1.68,1.54,16.7,16.7,0,0,1,0,2.74,1.65,1.65,0,0,1-1.71,1.63,1.69,1.69,0,0,1-1.7-1.65c0-.45,0-.91,0-1.37Z"/></g></g></svg>