<svg xmlns="http://www.w3.org/2000/svg" viewBox="0 0 200 200"><defs><style>.cls-1{fill:#cf5116;}.cls-2{fill:#fff;}</style></defs><g id="Capa_2" data-name="Capa 2"><g id="Diseño_Home" data-name="Diseño Home"><circle class="cls-1" cx="100" cy="100" r="100"/><path class="cls-2" d="M32.69,88c.29-.7.57-1.41.88-2.1.6-1.34,1.67-1.87,2.81-1.4s1.47,1.58,1,3c-1.69,4.55-.75,9.18,3,11.48,2.63,1.59,3,3.49,2.93,6.14-.12,7.79,0,15.59,0,23.39,0,4.24,2.42,6.7,6.64,6.71h62.55c4.3,0,6.73-2.47,6.73-6.77,0-8.52,0-17,0-25.56a3,3,0,0,1,1.74-3A9.54,9.54,0,0,0,125.4,88.2a9.62,9.62,0,0,0-18.7,3.18c-.07,8.15,0,16.31,0,24.47,0,4.43-2.37,6.82-6.78,6.83H62.5c-4.33,0-6.7-2.4-6.7-6.75,0-8,0-16.05,0-24.07,0-5.09-3.27-9.17-8.13-9.89a13.89,13.89,0,0,0-5,.54c-1.64.37-2.71.16-3.16-1.09s.11-2.22,1.69-2.74,3.13-.81,4.9-1.25c0-.7,0-1.59,0-2.48.08-4.35-.19-8.74.33-13,.83-6.94,7.2-12.07,13.48-11.37,3.24.36,6.47.82,9.71,1.12a130.44,130.44,0,0,0,26.06-.25c2.34-.25,4.67-.61,7-.87,5.13-.57,10.3,2.64,12.45,8a20,20,0,0,1,1.29,6.32c.2,4.11.07,8.25.08,12.37a.68.68,0,0,0,.08.24,32.37,32.37,0,0,1,4.07.89,13.15,13.15,0,0,1,9.18,10.65c1,5.56-1,10.07-5.49,13.45a2.33,2.33,0,0,0-1,2.12c0,7.84,0,15.68,0,23.53,0,6.88-4,11-10.9,11.15-.32,0-.63,0-1.16.06v5c0,3.72-1.39,5-5.07,5.14-5.13.23-6.43-1.72-6.15-6.23.08-1.25,0-2.51,0-3.87H62.43c0,1.8,0,3.59,0,5.38a6.5,6.5,0,0,1-.51,2.61c-1.28,2.47-3.67,2-5.87,2.09-1.81,0-3.37-.41-4.23-2.1a6.18,6.18,0,0,1-.53-2.49c-.08-1.8,0-3.6,0-5.51-1.05-.06-2-.08-2.92-.17a10,10,0,0,1-9.1-9.83c-.07-8.29,0-16.59,0-24.88a2,2,0,0,0-.94-1.9,13.3,13.3,0,0,1-5.13-6.84,6.75,6.75,0,0,0-.45-.94Zm69.9,15.91c0-4.13-.06-8.12,0-12.1.13-6.23,3.07-10.66,8.79-13.17.66-.3,1-.58,1-1.37,0-4.26,0-8.52,0-12.78A10.52,10.52,0,0,0,110,57.85a7.92,7.92,0,0,0-7.89-3.12,140.45,140.45,0,0,1-41.7,0,8,8,0,0,0-8,3.22,10.67,10.67,0,0,0-2.28,6.69c0,4.13,0,8.25,0,12.37a1.61,1.61,0,0,0,1.21,1.76C56,80.84,59,84.43,59.6,89.54c.44,3.89.21,7.86.27,11.8,0,.85,0,1.69,0,2.59Zm0,4.24H59.87v7.41c0,2.55.47,3,3,3H99.56a9.88,9.88,0,0,0,1.22,0,1.82,1.82,0,0,0,1.79-1.87C102.62,113.89,102.58,111.09,102.58,108.17Zm4.55,37.15v-3.67c0-2.59,0-2.59-2.64-2.31a1.36,1.36,0,0,0-.3.15v5.83Zm-48.86-6a15.92,15.92,0,0,0-2.2,0,1,1,0,0,0-.71.69c-.06,1.74,0,3.48,0,5.26h2.94Z"/><path class="cls-2" d="M139.06,119.52h24.08V106.13H139c0,1.12,0,2.23,0,3.34,0,1.61-.77,2.5-2,2.5s-2-.88-2-2.5c0-1.08,0-2.16,0-2.91a17.56,17.56,0,0,1-3.33-2.09c-1.53-1.54-1.52-6.07-.18-7.81a4.58,4.58,0,0,1,3.94-1.73c4.35,0,8.7,0,13,0H150V85.77c-1.33,0-2.67,0-4,0-1,0-2,0-3,0a3.71,3.71,0,0,1-3.49-5.23c1.12-3.2,2.3-6.38,3.45-9.57,1.78-4.9,1.88-5,7.12-5,2.18,0,4.35,0,6.53,0a3.71,3.71,0,0,1,3.84,2.66c1.45,3.94,2.89,7.89,4.29,11.86,1,2.82-.6,5.15-3.6,5.25-2.25.07-4.51,0-6.87,0v9.17H166.5c3.52,0,5.17,1.64,5.17,5.13v1.08c0,2.87-1.31,4.41-4.38,5v1.53c0,9.74,0,19.48,0,29.23,0,1.91-.36,3.5-2.36,4.29-.25.1-.44.64-.46,1-.06,1.22,0,2.44,0,3.67a3.42,3.42,0,0,1-3.69,3.62c-.82,0-1.63,0-2.45,0a3.39,3.39,0,0,1-3.62-3.55c-.05-1.48,0-3,0-4.52h-7.89c0,1.39,0,2.73,0,4.07,0,2.73-1.3,4-4,4h-1.91c-2.52,0-3.81-1.3-3.87-3.86,0-.81,0-1.63,0-2.44a3.09,3.09,0,0,0-1.09-3,3.64,3.64,0,0,1-.93-2.54c-.08-6.34,0-12.69,0-19,0-1.59.76-2.53,2-2.54s2,.93,2.06,2.52C139,118.87,139,119.14,139.06,119.52Zm0,17.6h24V123.73h-24Zm21.69-55.49c-1.38-3.79-2.68-7.44-4.06-11-.1-.27-.69-.48-1.06-.49-2.35,0-4.7,0-7,0a1.26,1.26,0,0,0-1.41,1.06c-.51,1.55-1.09,3.06-1.65,4.59-.69,1.94-1.39,3.88-2.13,5.94Zm-26.08,20.2h32.82V99.1H134.7Zm6.5,39.54v4l1.39-.07v-3.94Zm17.66,0v3.91h1.42v-3.91Z"/><path class="cls-2" d="M151,111.56a17,17,0,0,1-1.76-.12,1.81,1.81,0,0,1-1.61-1.89,1.72,1.72,0,0,1,1.48-2,17.72,17.72,0,0,1,3.92,0,1.72,1.72,0,0,1,1.48,2,1.82,1.82,0,0,1-1.62,1.88A17,17,0,0,1,151,111.56Z"/><path class="cls-2" d="M69.85,75.88c-.35,2-.93,2.67-2.18,2.66s-1.78-.68-2.17-2.6c-1.84-.33-2.62-1-2.6-2.18s.83-1.87,2.53-2.07c.58-2.08,1.22-2.83,2.42-2.67,1.44.18,1.91,1.19,1.9,2.5,2.16.61,2.77,1.16,2.69,2.42S71.66,75.67,69.85,75.88Z"/><path class="cls-2" d="M92.63,75.92C90.71,75.63,90,75,90,73.72s.76-1.8,2.62-2.08c.14-1.33.48-2.61,2.19-2.63,1.18,0,1.81.81,2.07,2.55,2,.49,2.71,1.11,2.66,2.29s-.81,1.79-2.55,2.06c-.53,2.06-1.06,2.67-2.31,2.63S92.94,77.84,92.63,75.92Z"/><path class="cls-2" d="M151.1,129.23c-.63,0-1.18,0-1.71-.09a1.83,1.83,0,0,1-1.73-1.92,1.77,1.77,0,0,1,1.63-2,17.81,17.81,0,0,1,3.65,0,1.76,1.76,0,0,1,1.6,2,1.81,1.81,0,0,1-1.63,1.87A16.7,16.7,0,0,1,151.1,129.23Z"/></g></g></svg>