<svg xmlns="http://www.w3.org/2000/svg" viewBox="0 0 200 200"><defs><style>.cls-1{fill:#cf5116;}.cls-2{fill:#fff;}</style></defs><g id="Capa_2" data-name="Capa 2"><g id="Diseño_Home" data-name="Diseño Home"><circle class="cls-1" cx="100" cy="100" r="100"/><path class="cls-2" d="M39.94,103.78c2.69-5.28,5.4-10.54,8.05-15.84a4.22,4.22,0,0,1,4.41-2.66c1.18.07,2.37,0,3.68,0,0-.45.06-.84.06-1.23,0-3,0-6.08,0-9.11a12.21,12.21,0,0,1,4.11-9.61,11.7,11.7,0,0,0,4.18-10.16c-.1-1.59,0-3.19,0-4.78a1.45,1.45,0,0,0-.64-1.25,3.49,3.49,0,0,1-1.22-2.06,65,65,0,0,1,0-6.55c0-1.67,1-2.52,2.86-2.53,3,0,6.08,0,9.12,0h8.23c2.2,0,3,.85,3,3,0,1.93,0,3.86,0,5.78a2.63,2.63,0,0,1-1.36,2.49,1.29,1.29,0,0,0-.53.93c0,2.55,0,5.11.07,7.67a4,4,0,0,0,1.92,3.67c.9-1.41,1.73-2.8,2.66-4.13a23.45,23.45,0,0,1,7.54-7.26c5.58-3.18,11.23-1.73,14.52,3.8.91,1.54,1.55,3.24,2.32,4.85.9-.79,1.79-1.69,2.79-2.42s2.07-1.27,3.12-1.9c-.24-1-.54-2-.72-3a11.39,11.39,0,0,1,.44-5.7c.52-1.5,1-3,1.5-4.53.73-2.08,2.44-2.56,4.06-1.07,2.25,2.06,4.42,4.21,6.65,6.35,2.21-2.22,5.4-3.34,8.39-4.77,1.74-.84,3.19.26,3.22,2.35,0,2.87-.06,5.75-.1,8.54l8.18,2.14a8.1,8.1,0,0,1,1,.31c1.46.67,1.94,2.21.84,3.37-3.36,3.56-6.67,7.27-12.07,7.66-.09,1.3-.07,2.52-.26,3.7a13.52,13.52,0,0,1-3.67,7.22l-6.53,6.84-1.28,1.36h1.3c3.93,0,7.86,0,11.79,0a4.12,4.12,0,0,1,4.09,2.47c2.53,5,5.11,10,7.66,15,1.17,2.31.2,3.9-2.37,3.91h-2.47v40.5c0,2.69-1,3.69-3.69,3.69H49c-2.78,0-3.75-1-3.75-3.74v-15.9a8.84,8.84,0,0,1,0-.89A1.7,1.7,0,0,1,47,128.75a1.64,1.64,0,0,1,1.62,1.65c0,1.41,0,2.82,0,4.23,0,3.85,0,7.71,0,11.56v1.28c.46,0,.82.06,1.18.06q22.08,0,44.14,0c1.06,0,1.29-.33,1.28-1.32q0-25.29,0-50.59V94.56l-.25-.1c-.18.33-.37.64-.54,1-1.48,2.9-3,5.79-4.43,8.71a4.19,4.19,0,0,1-4.15,2.56q-17.84,0-35.69,0H48.62v1.2q0,7.19,0,14.35c0,.88-.17,1.64-1.07,2-1.2.47-2.26-.42-2.26-1.91,0-4,0-8,0-12v-3.52c-1.85-.42-4.17.69-5.35-1.68Zm58.68,43.65h46.45V106.68H130.15a8.77,8.77,0,0,1-.89,0,1.53,1.53,0,0,1-1.5-1.5,1.55,1.55,0,0,1,1.23-1.74,4.87,4.87,0,0,1,1.21-.08h18.35c.38,0,.76,0,1.26-.06-2.35-4.62-4.65-9.09-6.9-13.58a1.7,1.7,0,0,0-1.76-1.11q-20.13.06-40.24,0H99.69c.18.43.3.73.44,1,2.17,4.26,4.36,8.5,6.48,12.77a1.54,1.54,0,0,0,1.63,1c4.3,0,8.6,0,12.9,0,1.37,0,2.17.63,2.18,1.68s-.79,1.65-2.18,1.65c-4.41,0-8.82,0-13.23,0a4.17,4.17,0,0,1-4.15-2.56c-1.44-2.91-3-5.8-4.43-8.7-.17-.33-.36-.65-.54-1l-.17.1ZM67.77,49.58c0,2-.07,3.91,0,5.8a14.34,14.34,0,0,1-5,12.16,9.58,9.58,0,0,0-3.28,7.72c0,3,0,6.07,0,9.11,0,.28.06.56.09.86H79.83a56.26,56.26,0,0,1,4.65-20.6,7.53,7.53,0,0,1-3.83-6.71c-.1-2.18-.07-4.37-.09-6.56,0-.58,0-1.16,0-1.78ZM83.21,85.29h1.1c7.48,0,15,0,22.45,0a1.28,1.28,0,0,0,1.47-1.07A48.68,48.68,0,0,0,110.64,66a22.33,22.33,0,0,0-2.8-10.18c-2.45-4.12-6.26-5.15-10.29-2.56a21.48,21.48,0,0,0-4.63,4.09C89,61.83,86.73,67.19,85.1,72.86A46.36,46.36,0,0,0,83.21,85.29ZM94.05,88.7c-.29,0-.4-.07-.51-.07q-20.66,0-41.33,0a1.24,1.24,0,0,0-1.24.86q-3.33,6.59-6.7,13.15c-.09.19-.17.38-.29.67.26,0,.44.06.61.06q20.61,0,41.22,0a1.23,1.23,0,0,0,1.26-.83c2.2-4.35,4.43-8.7,6.64-13C93.82,89.26,93.91,89,94.05,88.7Zm32.33-6.09-5.38-3c-1.18-.67-1.53-1.5-1-2.43s1.48-1.13,2.68-.47c1.82,1,3.62,2,5.45,3,.27.14.8.21,1,.06,1.26-1.24,2.46-2.53,3.73-3.86-3-1.65-5.84-3.22-8.68-4.81a1.64,1.64,0,0,1-.81-2.33,1.66,1.66,0,0,1,2.41-.57c.88.45,1.75,1,2.62,1.44l6.7,3.68a9.91,9.91,0,0,0,1.54-7.83,11.64,11.64,0,0,0-12.29-8.77c-4.56.42-8.08,2.45-10.12,6.7a2.54,2.54,0,0,0-.25,1.27,49.89,49.89,0,0,1-1.14,15.55c-.38,1.65-.84,3.27-1.26,4.9.15.06.21.12.28.12,3.85,0,7.7,0,11.55,0a1.36,1.36,0,0,0,.86-.38C124.91,84.2,125.57,83.46,126.38,82.61ZM65.91,46.12H82.4v-4.7H65.91Zm73.1-.4c-4.42,1-8.11,4.64-8.65,8.42L135,56.75C138.78,54,139.63,50.12,139,45.72Zm-12.13,7.81c.42-1.13.79-2.1,1.14-3.07a1.22,1.22,0,0,0,.1-.72c-.91-2.74-3.14-4.32-5.29-6.15-.46,1.42-.91,2.63-1.25,3.88A8.24,8.24,0,0,0,122,52.9a1.22,1.22,0,0,0,.94.6C124.23,53.57,125.56,53.53,126.88,53.53Zm10.55,5.76c.56,1,1.14,2,1.58,3a.89.89,0,0,0,1.12.58c3.47-.48,5.92-2.55,8.18-5.19-2.57-.72-4.95-1.72-7.57-1.28a1.89,1.89,0,0,0-1,.41C139,57.6,138.2,58.46,137.43,59.29Z"/><path class="cls-2" d="M65.09,137.84H58.55c-1.31,0-2.06-.62-2.08-1.64s.78-1.69,2.05-1.69H71.71c1.32,0,2,.61,2.05,1.66s-.7,1.66-2,1.67Z"/><path class="cls-2" d="M65.07,129.47c-2.22,0-4.44,0-6.67,0-1.35,0-2.14-.92-1.87-2a1.55,1.55,0,0,1,1.6-1.28c4.67,0,9.34,0,14,0a1.53,1.53,0,0,1,1.62,1.6,1.58,1.58,0,0,1-1.69,1.68c-2.33.05-4.66,0-7,0Z"/><path class="cls-2" d="M103.26,80.47,95,78.79c-1.49-.3-3-.59-4.46-.92-1.25-.27-1.84-1.07-1.61-2.09s1-1.4,2.28-1.15q6.2,1.23,12.39,2.53a1.67,1.67,0,0,1,1.53,2A1.61,1.61,0,0,1,103.26,80.47Z"/><path class="cls-2" d="M95.93,64.85c2.45.51,5.17,1,7.86,1.67a1.64,1.64,0,0,1-.85,3.16q-3.8-.74-7.58-1.53a1.67,1.67,0,0,1-1.48-1.88C94,65.36,94.69,64.81,95.93,64.85Z"/></g></g></svg>