<svg xmlns="http://www.w3.org/2000/svg" viewBox="0 0 200 200"><defs><style>.cls-1{fill:#cf5116;}.cls-2{fill:#fff;}</style></defs><g id="Capa_2" data-name="Capa 2"><g id="Diseño_Home" data-name="Diseño Home"><circle class="cls-1" cx="100" cy="100" r="100"/><path class="cls-2" d="M31.25,127v-1.48q0-27,0-54a5.46,5.46,0,0,1,4.12-5.68,6.85,6.85,0,0,1,1.75-.18H120c3.65,0,5.88,2.28,5.88,6V127h3.21c1.52,0,2.05.53,2,2.08a30.8,30.8,0,0,1-.15,4.3,5.31,5.31,0,0,1-5.23,4.51h-.78q-46.39,0-92.78,0a5.91,5.91,0,0,1-4.61-1.7A5.6,5.6,0,0,1,26,132.25c0-1.11,0-2.22,0-3.32,0-1.45.56-2,2-2Zm3.09,0H66.83a1.51,1.51,0,0,1,1.62,1.47c0,.28.08.56.13.85H88.47C89,127,89,127,91.43,127h31.32V72c0-2.55-.72-3.26-3.3-3.26H37.69c-2.65,0-3.35.69-3.35,3.32V127Zm-5.19,3.16c-.26,3.09-.15,4.69,4.1,4.68,30.38-.08,60.76,0,91.14,0,.41,0,.81,0,1.22,0a2.35,2.35,0,0,0,2.36-2.19c.08-.79,0-1.6,0-2.44H91.83c-.35,2.13-.58,2.33-2.73,2.33H67.44c-1.46,0-1.9-.42-2.07-1.84a3.52,3.52,0,0,0-.11-.49Z"/><path class="cls-2" d="M78.54,71.54h38.88c2.18,0,2.48.29,2.48,2.5v47.59c0,2.11-.35,2.46-2.41,2.46H39.62c-2.07,0-2.42-.35-2.42-2.45V74.05c0-2.24.27-2.51,2.57-2.51ZM116.74,121V74.69H40.37V121Z"/><path class="cls-2" d="M175.25,98.59v25a5.3,5.3,0,0,1-5.71,5.7H145a5.29,5.29,0,0,1-5.66-5.63V73.48A5.29,5.29,0,0,1,145,67.87h24.63a5.28,5.28,0,0,1,5.62,5.6Zm-27.88-27.9h-1.92a2.59,2.59,0,0,0-2.87,2.84v49.88a2.57,2.57,0,0,0,2.83,2.81h23.83a4.14,4.14,0,0,0,.79-.06,2.59,2.59,0,0,0,2-2.83V73.58c0-.15,0-.29,0-.43a2.4,2.4,0,0,0-2-2.35,18.76,18.76,0,0,0-2.81,0c0,.34,0,.66,0,1a2,2,0,0,1-2,2H149.35a2,2,0,0,1-2-2C147.36,71.42,147.37,71.1,147.37,70.69Z"/></g></g></svg>