<svg xmlns="http://www.w3.org/2000/svg" viewBox="0 0 200 200"><defs><style>.cls-1{fill:#cf5116;}.cls-2{fill:#fff;}</style></defs><g id="Capa_2" data-name="Capa 2"><g id="Diseño_Home" data-name="Diseño Home"><circle class="cls-1" cx="100" cy="100" r="100"/><path class="cls-2" d="M138.48,101A115.14,115.14,0,0,1,116,106.87,123.64,123.64,0,0,1,92.38,108,111.46,111.46,0,0,1,61.74,103c-6.47-2.12-12.63-4.86-17.78-9.46-3.06-2.74-5.36-6-6-10.16a11.15,11.15,0,0,1-.1-1.15c0-1.48.5-2,2-2,5.48,0,11,0,16.44,0h4.32V74.58c0-2.45.27-2.72,2.75-2.72h1.34c.15-10.37,4-19,11.87-25.61a31.6,31.6,0,0,1,21.75-7.51,32.72,32.72,0,0,1,31.77,33.12c.72,0,1.44,0,2.16,0,1.33,0,1.86.56,1.88,1.9,0,2.07,0,4.14,0,6.38h20.47c1.94,0,2.46.55,2.27,2.51-.45,4.73-3,8.35-6.53,11.2-2.47,2-5.28,3.53-7.95,5.27-.39.25-.8.45-1,.57.88,2.5,1.69,4.89,2.57,7.26a2.6,2.6,0,0,0,1,1.1c3.57,2.41,7.15,4.81,10.76,7.17a2.49,2.49,0,0,1,1.26,2.34c0,9.32,0,18.64,0,27.95a5.7,5.7,0,0,1-6.08,6.08H135.08a5.7,5.7,0,0,1-6.08-6.07c0-9.32,0-18.64,0-28a2.51,2.51,0,0,1,1.26-2.34c3.29-2.14,6.52-4.36,9.81-6.5.75-.48,1-.94.67-1.78C140,105,139.25,103,138.48,101ZM154,83.31H41.18a11.16,11.16,0,0,0,2.6,5.47A29.46,29.46,0,0,0,54.1,96.42a83.37,83.37,0,0,0,25.73,7.33c15.5,2.11,30.89,1.77,46.09-2.16,3.43-.88,6.81-2,10.38-3.06a20.24,20.24,0,0,0-5.91-4.81c-1.34-.75-1.7-1.5-1.17-2.42s1.34-1,2.69-.28a23,23,0,0,1,6.72,5.39,1,1,0,0,0,1.53.31c1.05-.6,2.15-1.1,3.19-1.71,3.31-1.92,6.41-4.12,8.52-7.4A40.21,40.21,0,0,0,154,83.31ZM127,71.79c-.28-10.94-4.64-19.68-13.92-25.4-10.44-6.42-21.26-6.34-31.62.23C72.36,52.37,68.11,61,67.85,71.79Zm14.41,39.84c-.49.29-.82.46-1.13.67-2.41,1.6-4.79,3.23-7.22,4.79a1.81,1.81,0,0,0-1,1.76c0,8.8,0,17.6,0,26.4,0,2.31.91,3.23,3.2,3.23q7.63,0,15.27,0c2.37,0,3.28-.91,3.28-3.29V122.67c0-1.63.47-3.54-.21-4.82s-2.55-1.94-3.9-2.86c-1.66-1.12-3.34-2.22-5.13-3.41,0,.38-.08.54-.08.7v5.27c3.37,1.77,4.68,4.07,4,6.89a5.67,5.67,0,0,1-11,.11c-.76-2.88.5-5.15,3.91-7ZM131,75.05H63.86v5H131Zm12,45.48a2.58,2.58,0,1,0,2.59,2.64A2.61,2.61,0,0,0,143,120.53Z"/><path class="cls-2" d="M81.3,125.76H76.5a69.12,69.12,0,0,1-1.89,7.44,22.06,22.06,0,0,1-20.47,14.24A13.93,13.93,0,0,1,40,133.53a34.65,34.65,0,0,1,.52-7.7,13.57,13.57,0,0,1,13-10.46c4.36-.08,8.72-.13,13.07,0a9.37,9.37,0,0,1,8.86,6.22c.31.75.63,1.07,1.47,1,1.33-.08,2.68,0,4-.06a1.52,1.52,0,0,0,1.06-.74,9.88,9.88,0,0,1,9.66-6.47c3.88,0,7.76,0,11.64,0a14,14,0,0,1,14.32,14.3,32.71,32.71,0,0,1-.41,6.94c-1.54,7.1-8.11,11.56-15.46,10.78a22.26,22.26,0,0,1-20-18.25C81.53,128,81.45,126.92,81.3,125.76Zm16.37-7.09v-.22c-2.11,0-4.22,0-6.33,0a6.73,6.73,0,0,0-6.87,7,19.22,19.22,0,0,0,18.67,18.87,10.78,10.78,0,0,0,11.23-9.47,35.66,35.66,0,0,0,.1-5.94,10.5,10.5,0,0,0-8.81-10.18A57.51,57.51,0,0,0,97.67,118.67ZM60,118.46h0c-2.16,0-4.31,0-6.46,0a10.61,10.61,0,0,0-10.21,8.81,32.84,32.84,0,0,0-.2,7.08,10.8,10.8,0,0,0,10.52,10,19.2,19.2,0,0,0,19.44-19,6.74,6.74,0,0,0-6.76-6.86C64.21,118.43,62.1,118.46,60,118.46Z"/></g></g></svg>