<svg xmlns="http://www.w3.org/2000/svg" viewBox="0 0 200 200"><defs><style>.cls-1{fill:#cf5116;}.cls-2{fill:#fff;}</style></defs><g id="Capa_2" data-name="Capa 2"><g id="Diseño_Home" data-name="Diseño Home"><circle class="cls-1" cx="100" cy="100" r="100"/><path class="cls-2" d="M160.4,123.18c-.36,1.94-.59,3.92-1.09,5.82-3.84,14.59-12.94,24.39-27.36,28.7-16.74,5-34.14-1.61-43.85-16.15a39.18,39.18,0,0,1,1.55-45.36c8.83-11.32,20.57-16.52,34.87-15.46C142,82,156.8,95.71,159.77,113c.22,1.33.42,2.66.63,4Zm-42.27-22.62a16.18,16.18,0,0,0,0-2.09,1.86,1.86,0,0,0-.57-1.17c-3.38-2.51-6.8-5-10.23-7.43a1.34,1.34,0,0,0-1.15-.12A31.78,31.78,0,0,0,97,96.44a1.48,1.48,0,0,0-.28,1.22q1.86,6,3.86,11.92a1.86,1.86,0,0,0,1,1c1.23.48,2.52.8,3.75,1.25a1.6,1.6,0,0,0,1.71-.28c2.92-2.16,5.81-4.37,8.83-6.37C117.55,104,118.77,102.81,118.13,100.56Zm17.18-11.09c-.22.15-.47.29-.7.46-2.35,1.7-4.7,3.39-7,5.11-1.24.91-2.92,1.62-3.54,2.85s-.13,3-.2,4.55a1.61,1.61,0,0,0,.79,1.54c2.48,1.77,4.94,3.57,7.41,5.35,1.28.92,2.49,2.36,3.88,2.56s3.07-.77,4.58-1.32a1.83,1.83,0,0,0,1-1c1.33-3.92,2.58-7.86,3.89-11.79a1.24,1.24,0,0,0-.35-1.45,34.82,34.82,0,0,0-9-6.56ZM98.66,136.21H101c1.54,0,3.33.45,4.55-.18s1.93-2.4,2.91-3.62a1.61,1.61,0,0,0,.26-1.72c-1-2.88-1.88-5.78-2.83-8.67-.49-1.49-.64-3.35-1.64-4.34s-2.86-1.17-4.37-1.57a2.09,2.09,0,0,0-1.57.25c-3.33,2.35-6.6,4.77-9.92,7.13a1.39,1.39,0,0,0-.65,1.56,35.4,35.4,0,0,0,3.42,10.4,1.21,1.21,0,0,0,1.25.78C94.47,136.19,96.57,136.21,98.66,136.21Zm44.69,0c2.09,0,4.19,0,6.28,0a1.22,1.22,0,0,0,1.27-.78,32.64,32.64,0,0,0,3.38-10.62,1.45,1.45,0,0,0-.46-1.16q-5-3.73-10.15-7.37a1.9,1.9,0,0,0-1.38-.23c-1.27.32-2.51.81-3.77,1.17a1.63,1.63,0,0,0-1.23,1.22c-.91,2.9-1.87,5.78-2.8,8.68-.48,1.49-1.45,3.09-1.22,4.48s1.67,2.59,2.59,3.87c0,0,0,.08.06.09.42.21.84.59,1.27.6C139.24,136.25,141.3,136.21,143.35,136.21ZM121,108.4c-3.52,2.56-7,5.09-10.51,7.67a1,1,0,0,0-.25.91c1.23,3.87,2.48,7.74,3.79,11.6a1.2,1.2,0,0,0,.89.67q6.06.08,12.12,0a1.22,1.22,0,0,0,.92-.64q2-5.79,3.77-11.61a1.08,1.08,0,0,0-.27-1C128,113.48,124.54,111,121,108.4ZM121,135c-2.17,0-4.33-.05-6.49,0a2.21,2.21,0,0,0-1.42.73,24.78,24.78,0,0,0-2.26,3.12,2.17,2.17,0,0,0-.25,1.57c1.21,3.92,2.52,7.81,3.75,11.72a1.32,1.32,0,0,0,1.23,1,33.12,33.12,0,0,0,11.06-.06,1.58,1.58,0,0,0,1-.91c.94-2.69,1.8-5.42,2.67-8.14.48-1.49,1.47-3.08,1.25-4.47s-1.64-2.62-2.62-3.85a2.2,2.2,0,0,0-1.43-.72C125.33,134.94,123.16,135,121,135ZM87.45,117.11c2.56-1.86,4.93-3.57,7.28-5.31a.93.93,0,0,0,.2-.83c-.86-2.75-1.76-5.49-2.71-8.42A33.57,33.57,0,0,0,87.45,117.11ZM134.09,151a34.08,34.08,0,0,0,12.38-9c-3.2,0-6.09,0-9,0a.86.86,0,0,0-.62.46C136,145.17,135.06,148,134.09,151Zm-26.35-.24a2.24,2.24,0,0,0,0-.53c-.82-2.54-1.62-5.09-2.51-7.61a1.32,1.32,0,0,0-1-.61c-2.57-.05-5.13,0-7.7,0a5.37,5.37,0,0,0-.72.1C98.29,145.39,104.68,150,107.74,150.71Zm46.79-33.63a33.08,33.08,0,0,0-4.72-14.53c-1,3-1.9,5.78-2.78,8.56a.74.74,0,0,0,.2.65C149.58,113.49,151.94,115.2,154.53,117.08ZM128.7,87.14a34.53,34.53,0,0,0-15.34,0c2.57,1.87,4.9,3.58,7.26,5.25a.93.93,0,0,0,.84,0C123.82,90.7,126.15,89,128.7,87.14Z"/><path class="cls-2" d="M89.88,46.5c2.38.43,4.8.68,7.12,1.32,12.22,3.37,20.9,10.91,26.12,22.44.8,1.77.24,3.42-1.3,4.1s-3,0-3.94-1.77c-1-2-2.16-4-3.3-6a27,27,0,0,0-1.64-2.24c-1.38,2.17-2.75,4.11-3.89,6.17a45,45,0,0,0-2.14,4.93c-.71,1.73-2.17,2.55-3.73,2a2.9,2.9,0,0,1-1.66-3.89A38.81,38.81,0,0,1,109,60.44a33.56,33.56,0,0,0-19.2-8.1V53.5l0,32.06a3,3,0,0,1-3.32,3.23c-3.75,0-7.5,0-11.24,0-.32,0-.64,0-1,.06a39.19,39.19,0,0,1-9.49,22.58c1.65,1.14,3.19,2.31,4.83,3.32a44,44,0,0,0,4.1,2.11c1.74.84,2.43,2.4,1.71,4a2.84,2.84,0,0,1-4,1.28c-13.94-6.45-22.11-17.25-23.61-32.55A39.13,39.13,0,0,1,79.28,47.26c1.61-.33,3.25-.51,4.87-.76ZM84.06,83V52.36a33.35,33.35,0,0,0-19.13,8.09c6.94,10,7.26,10.74,9.43,22.52ZM68.54,83A33,33,0,0,0,61,64.73c-3.57,3.13-8,14.1-7.35,18.25ZM53.42,88.83a33.67,33.67,0,0,0,7.46,18.37,33.05,33.05,0,0,0,7.65-18.37Z"/></g></g></svg>