<svg xmlns="http://www.w3.org/2000/svg" viewBox="0 0 200 200"><defs><style>.cls-1{fill:#cf5116;}.cls-2{fill:#fff;}</style></defs><g id="Capa_2" data-name="Capa 2"><g id="Diseño_Home" data-name="Diseño Home"><circle class="cls-1" cx="100" cy="100" r="100"/><path class="cls-2" d="M101.4,161.58a75.35,75.35,0,0,1-21.15-10.36C69.05,143.3,61.79,132.6,58,119.48a87.66,87.66,0,0,1-3.3-21.94c-.19-7,0-14-.08-20.93A12.32,12.32,0,0,1,66.7,63.92a49.38,49.38,0,0,0,15.55-3.28A43.26,43.26,0,0,0,95.17,52.8c1.84-1.61,3.56-3.38,6-4.09h2.65c2.41.69,4.11,2.42,5.93,4A43.94,43.94,0,0,0,132.4,63.24c2.35.37,4.74.55,7.1.84a11.87,11.87,0,0,1,10.83,12.08c0,8.22.16,16.46-.27,24.67-.56,10.86-2.86,21.36-8.11,31.05a56.9,56.9,0,0,1-19.1,20.64A79.11,79.11,0,0,1,105.49,161c-.62.22-1.26.39-1.88.58ZM61.28,88.5a102.3,102.3,0,0,0,2.42,26.56c2.44,10,7,18.85,14.6,26,6.78,6.45,14.86,10.67,23.61,13.72a2.54,2.54,0,0,0,1.58-.12A72.46,72.46,0,0,0,118,147.8a50.63,50.63,0,0,0,19.45-21.64,68.74,68.74,0,0,0,5.69-21.38c1.15-9.67.86-19.36.59-29a5.09,5.09,0,0,0-4.56-5c-2.44-.35-4.89-.52-7.32-.87A49.1,49.1,0,0,1,111,62c-2.66-1.81-5.08-4-7.56-6-.7-.59-1.2-.67-1.86,0s-1.25,1.14-1.88,1.7A49,49,0,0,1,76.34,69.27c-3.37.68-6.83.91-10.24,1.41a5.22,5.22,0,0,0-4.81,5.48C61.25,80.27,61.28,84.38,61.28,88.5Z"/><path class="cls-2" d="M130.63,105.2a28.12,28.12,0,1,1-28-28.15A28.18,28.18,0,0,1,130.63,105.2Zm-6.64-.09a21.5,21.5,0,1,0-21.48,21.54A21.55,21.55,0,0,0,124,105.11Z"/><path class="cls-2" d="M97.49,109.57l4.25-4.31c2.88-2.88,5.75-5.77,8.65-8.64a3.31,3.31,0,1,1,4.7,4.64q-7.49,7.53-15,15a3.28,3.28,0,0,1-5,0q-2.79-2.73-5.53-5.52a3.34,3.34,0,0,1-.22-4.82,3.28,3.28,0,0,1,4.89.15C95.25,107.21,96.3,108.34,97.49,109.57Z"/></g></g></svg>