<svg xmlns="http://www.w3.org/2000/svg" viewBox="0 0 200 200"><defs><style>.cls-1{fill:#cf5116;}.cls-2{fill:#fff;}</style></defs><g id="Capa_2" data-name="Capa 2"><g id="Diseño_Home" data-name="Diseño Home"><circle class="cls-1" cx="100" cy="100" r="100"/><path class="cls-2" d="M165.05,93.29a60.57,60.57,0,0,1-2.44,7.74c-2.44,5.23-6.26,9.2-11.88,11-7.2,2.34-13.7-1.16-15.9-8.42-3-10,3.86-23,13.88-26A12.09,12.09,0,0,1,164.56,87c.16.74.33,1.47.49,2.2ZM160.28,91c-.07-.64-.13-1.36-.25-2.07-1-5.89-5.69-8.59-11.13-6.22A15.84,15.84,0,0,0,141.29,90c-2.11,3.92-3.07,8-1.74,12.48,1.07,3.56,3.9,5.82,7.37,5.37a12.7,12.7,0,0,0,5.32-1.9C157.46,102.46,159.92,97.3,160.28,91Z"/><path class="cls-2" d="M104.42,87.46c7.33.37,13.52,3.91,17.45,11.21,2.32,4.29,4.48,8.69,7.15,12.75a46.63,46.63,0,0,0,7,8.15c8.31,7.8,8.52,21.88.21,29.73-5.9,5.57-12.91,7.66-20.79,5.77a52.22,52.22,0,0,0-24.2.07c-10.91,2.48-22.72-4-25.59-15.13-1.92-7.36-.42-14.14,4.94-19.57A67.46,67.46,0,0,0,84.4,100.65,22.23,22.23,0,0,1,91,91.81,21.41,21.41,0,0,1,104.42,87.46Zm.16,4.83a16.78,16.78,0,0,0-8.36,1.85,16.19,16.19,0,0,0-7.24,8,68.52,68.52,0,0,1-14.93,21.58c-4.41,4.26-5.52,11.47-3,17.08a17.24,17.24,0,0,0,19.63,9.55,51.81,51.81,0,0,1,25.62,0A17.28,17.28,0,0,0,130,148.2a16,16,0,0,0,2.62-25.28,55.36,55.36,0,0,1-5.46-5.89c-4-4.87-6.74-10.47-9.51-16.08A14.81,14.81,0,0,0,104.58,92.29Z"/><path class="cls-2" d="M108.6,63.42c.2-6.08,2.11-12.3,7.31-17.12,3.71-3.45,8.39-4.28,12.4-2.35a13.73,13.73,0,0,1,6.17,6.49c4.37,8.63,2.66,20.86-3.89,27.72-2.28,2.39-5,4.11-8.33,4.28-5.19.25-8.54-2.64-10.92-6.89C109.38,72.05,108.63,68.22,108.6,63.42Zm23.54-2.78a17.83,17.83,0,0,0-2.75-9.37c-2.31-3.55-5.8-4.58-8.88-2.41a14.09,14.09,0,0,0-3.45,3.44,20.65,20.65,0,0,0-2.78,17.77,15,15,0,0,0,2.17,4.51c2.69,3.92,6.93,4.12,10.29.62S131.74,67.11,132.14,60.64Z"/><path class="cls-2" d="M70.33,61.76c.1-5.58,1.14-10.2,4.2-14.18,4.24-5.52,11-6.26,16.32-1.74a22.1,22.1,0,0,1,7.28,13.31A24.18,24.18,0,0,1,96,75.27a12.74,12.74,0,0,1-7,6.59c-3.75,1.31-7.19.36-10.26-1.94-4.79-3.6-7.07-8.66-8-14.41C70.49,64.06,70.41,62.57,70.33,61.76Zm23.5,1.68a38.25,38.25,0,0,0-.6-4.2c-1-4-2.68-7.61-6.08-10.18-2.6-2-5.69-1.85-7.89.54a14.55,14.55,0,0,0-2.73,4.16,20,20,0,0,0-.87,12c.86,4,2.56,7.68,5.92,10.29,2.94,2.3,6,2.06,8.54-.7C93,72.16,93.72,68.17,93.83,63.44Z"/><path class="cls-2" d="M73.1,98c-.17,4.71-1.12,8.44-4.07,11.41-3.48,3.51-8.69,4.39-13.67,2.32-9.19-3.81-15-15.28-12.69-24.94,2.06-8.54,10.63-12.32,18.55-8S72.49,90,73.1,98ZM47,91.12c-.17,6,4,13,9.37,15.73s10.11.55,11.53-5.24a15.51,15.51,0,0,0-1.49-10.69c-1.93-3.93-4.72-7-8.94-8.57-3.53-1.3-6.78-.35-8.78,2.61A11.14,11.14,0,0,0,47,91.12Z"/><path class="cls-2" d="M117.91,113.73a9,9,0,0,1,1.84,1.34c2.78,3.39,5.5,6.84,8.23,10.27a2.45,2.45,0,0,1-.08,3.37,2.31,2.31,0,0,1-3.34-.06,61,61,0,0,1-8.86-11.14C114.67,115.87,115.88,113.94,117.91,113.73Z"/><path class="cls-2" d="M113.2,110.17a2.39,2.39,0,0,1-2.39-2.35,2.39,2.39,0,1,1,2.39,2.35Z"/></g></g></svg>